<?xml version="1.0" encoding="UTF-8"?>
<svg width="370px" height="370px" viewBox="0 0 370 370" version="1.1" xmlns="http://www.w3.org/2000/svg" xmlns:xlink="http://www.w3.org/1999/xlink">
    <title>Group</title>
    <g id="Page-1" stroke="none" stroke-width="1" fill="none" fill-rule="evenodd">
        <g id="Artboard" transform="translate(-34, -34)" fill-rule="nonzero">
            <g id="Group" transform="translate(34, 34)">
                <path d="M185,34.6875 C268.015301,34.6875 335.3125,101.984699 335.3125,185 C335.3125,268.015301 268.015301,335.3125 185,335.3125 C101.984699,335.3125 34.6875,268.015301 34.6875,185 C34.6875,101.984699 101.984699,34.6875 185,34.6875 Z M185,370 C287.172679,370 370,287.172679 370,185 C370,82.8273213 287.172679,0 185,0 C82.8273213,0 0,82.8273213 0,185 C0,287.172679 82.8273213,370 185,370 Z" id="Shape" fill="#318CDD"></path>
                <path d="M185,92.5 C175.388672,92.5 167.65625,100.232422 167.65625,109.84375 L167.65625,190.78125 C167.65625,200.392578 175.388672,208.125 185,208.125 C194.611328,208.125 202.34375,200.392578 202.34375,190.78125 L202.34375,109.84375 C202.34375,100.232422 194.611328,92.5 185,92.5 Z" id="Path" fill="#17456D"></path>
                <path d="M208.125,254.375 C208.125,241.603415 197.771585,231.25 185,231.25 C172.228415,231.25 161.875,241.603415 161.875,254.375 C161.875,267.146585 172.228415,277.5 185,277.5 C197.771585,277.5 208.125,267.146585 208.125,254.375 Z" id="Path" fill="#17456D"></path>
            </g>
        </g>
    </g>
</svg>