<?xml version="1.0" encoding="UTF-8"?>
<svg width="437px" height="437px" viewBox="0 0 437 437" version="1.1" xmlns="http://www.w3.org/2000/svg" xmlns:xlink="http://www.w3.org/1999/xlink">
    <title>Artboard</title>
    <g id="Artboard" stroke="none" stroke-width="1" fill="none" fill-rule="evenodd">
        <g id="tip" transform="translate(46, 21)" fill="#9581B3" fill-rule="nonzero">
            <path d="M345,184.687491 L345,258.562488 C345,260.948035 344.691995,263.333581 344.152987,265.642175 L319.512614,370.29842 C316.278565,384.149982 303.881378,394 289.559161,394 L129.396738,394 C119.525102,394.007633 110.247945,389.286103 104.448361,381.302716 L5.8868695,245.865223 C-4.12328195,232.090614 -1.04323535,212.852334 12.662972,202.848428 C26.4461805,192.844522 45.6964718,195.922647 55.7066232,209.620303 L80.1159925,243.171864 L80.1159925,30.7812486 C80.1159925,13.7746087 93.8992011,0 110.916459,0 C127.933716,0 141.716924,13.7746087 141.716924,30.7812486 L141.716924,184.687491 L147.877018,184.687491 L147.877018,153.906243 C147.877018,136.899603 161.660226,123.124994 178.677484,123.124994 C195.694741,123.124994 209.47795,136.899603 209.47795,153.906243 L209.47795,184.687491 L215.638043,184.687491 L215.638043,166.218742 C215.638043,149.212102 229.421251,135.437494 246.438509,135.437494 C263.455766,135.437494 277.238975,149.212102 277.238975,166.218742 L277.238975,184.687491 L283.399068,184.687491 C283.399068,167.680851 297.182277,153.906243 314.199534,153.906243 C331.216791,153.906243 345,167.680851 345,184.687491 Z M147.877018,246.249988 L141.716924,246.249988 L141.716924,320.124985 L147.877018,320.124985 L147.877018,246.249988 Z M215.638043,246.249988 L209.47795,246.249988 L209.47795,320.124985 L215.638043,320.124985 L215.638043,246.249988 Z M283.399068,246.249988 L277.238975,246.249988 L277.238975,320.124985 L283.399068,320.124985 L283.399068,246.249988 Z" id="Shape"></path>
        </g>
    </g>
</svg>