<?xml version="1.0" encoding="UTF-8"?>
<svg width="437px" height="437px" viewBox="0 0 437 437" version="1.1" xmlns="http://www.w3.org/2000/svg" xmlns:xlink="http://www.w3.org/1999/xlink">
    <title>Artboard</title>
    <g id="Artboard" stroke="none" stroke-width="1" fill="none" fill-rule="evenodd">
        <rect id="Rectangle" fill="#000000" fill-rule="nonzero" x="173" y="146" width="106" height="195"></rect>
        <g id="Group" transform="translate(23, 48)" fill="#F8D65B" fill-rule="nonzero">
            <path d="M195.485806,0 C206.330723,0 216.335541,5.72544643 221.834372,15.1151786 L386.799305,296.04375 C392.374509,305.509821 392.374509,317.189732 386.95205,326.655804 C381.529592,336.121875 371.372029,342 360.450739,342 L30.5208726,342 C19.599583,342 9.44202001,336.121875 4.01956155,326.655804 C-1.40289691,317.189732 -1.32652425,305.433482 4.17230686,296.04375 L169.13724,15.1151786 C174.636071,5.72544643 184.640889,0 195.485806,0 Z M195.485806,97.7142857 C185.328243,97.7142857 177.156369,105.882589 177.156369,116.035714 L177.156369,201.535714 C177.156369,211.688839 185.328243,219.857143 195.485806,219.857143 C205.643369,219.857143 213.815243,211.688839 213.815243,201.535714 L213.815243,116.035714 C213.815243,105.882589 205.643369,97.7142857 195.485806,97.7142857 Z M219.925055,268.714286 C219.925055,255.222758 208.983231,244.285714 195.485806,244.285714 C181.988381,244.285714 171.046557,255.222758 171.046557,268.714286 C171.046557,282.205813 181.988381,293.142857 195.485806,293.142857 C208.983231,293.142857 219.925055,282.205813 219.925055,268.714286 Z" id="Shape"></path>
        </g>
    </g>
</svg>